<svg xmlns="http://www.w3.org/2000/svg" viewBox="0 0 280 84" role="img" aria-labelledby="title desc">
  <title id="title">Jewelet logo</title>
  <desc id="desc">A faceted gold jewel icon beside the Jewelet wordmark.</desc>
  <defs>
    <linearGradient id="gold" x1="22" y1="12" x2="66" y2="72" gradientUnits="userSpaceOnUse">
      <stop offset="0" stop-color="#f7df9b"/>
      <stop offset=".52" stop-color="#c99237"/>
      <stop offset="1" stop-color="#8d651e"/>
    </linearGradient>
    <linearGradient id="shine" x1="35" y1="17" x2="53" y2="50" gradientUnits="userSpaceOnUse">
      <stop offset="0" stop-color="#fff6cf"/>
      <stop offset="1" stop-color="#d9a84a"/>
    </linearGradient>
  </defs>
  <g fill="none" fill-rule="evenodd">
    <path fill="#fffaf0" d="M42 4c20.987 0 38 17.013 38 38S62.987 80 42 80 4 62.987 4 42 21.013 4 42 4Z"/>
    <path stroke="#1f3f5b" stroke-opacity=".14" stroke-width="1.5" d="M42 4.75c20.573 0 37.25 16.677 37.25 37.25S62.573 79.25 42 79.25 4.75 62.573 4.75 42 21.427 4.75 42 4.75Z"/>
    <path fill="url(#gold)" d="M42 13 67 32.117 57.452 62H26.548L17 32.117 42 13Z"/>
    <path fill="url(#shine)" d="m42 13 9.67 19.117H32.33L42 13Z"/>
    <path fill="#b7832d" d="m17 32.117 15.33.001-5.782 29.881L17 32.117Zm50 0-9.548 29.882-5.782-29.881L67 32.117Z"/>
    <path fill="#f0c869" d="M32.33 32.118h19.34L42 62 32.33 32.118Z"/>
    <path stroke="#fff8dc" stroke-linecap="round" stroke-width="2.5" d="m28.5 29.5 7-5.4M22.5 37.5l1.8 5.7"/>
    <path fill="#183047" d="M100.02 24.8c4.267 0 7.6 1.253 10 3.76 2.4 2.453 3.6 5.867 3.6 10.24v17.36c0 4.64-1.28 8.214-3.84 10.72-2.507 2.507-6 3.76-10.48 3.76-4.267 0-7.68-1.12-10.24-3.36-2.507-2.293-3.92-5.44-4.24-9.44h8.88c.16 1.707.72 3.014 1.68 3.92.96.854 2.213 1.28 3.76 1.28 1.813 0 3.2-.56 4.16-1.68.96-1.173 1.44-2.906 1.44-5.2V39.04c0-2.187-.454-3.84-1.36-4.96-.854-1.12-2.107-1.68-3.76-1.68-1.6 0-2.907.48-3.92 1.44-1.014.907-1.6 2.267-1.76 4.08h-8.88c.32-4.213 1.84-7.44 4.56-9.68 2.72-2.293 6.186-3.44 10.4-3.44Zm38.986 45.84c-5.386 0-9.68-1.68-12.88-5.04-3.2-3.413-4.8-7.973-4.8-13.68 0-5.813 1.574-10.427 4.72-13.84 3.147-3.467 7.307-5.2 12.48-5.2 5.067 0 9.067 1.6 12 4.8 2.987 3.2 4.48 7.547 4.48 13.04 0 1.014-.08 2.16-.24 3.44h-24.4c.32 2.987 1.253 5.254 2.8 6.8 1.547 1.494 3.52 2.24 5.92 2.24 3.467 0 5.947-1.466 7.44-4.4h8.8c-1.067 3.574-3.04 6.454-5.92 8.64-2.88 2.134-6.347 3.2-10.4 3.2Zm7.12-22.64c-.214-2.506-1.014-4.426-2.4-5.76-1.334-1.386-3.12-2.08-5.36-2.08-2.134 0-3.92.72-5.36 2.16-1.44 1.387-2.32 3.28-2.64 5.68h15.76Zm61.89-14.56h8.56l-11.44 36.64h-8.4l-7.44-24.72-7.52 24.72h-8.4l-11.36-36.64h8.88l6.96 25.28 7.52-25.28h8.08l7.44 25.28 7.12-25.28Zm30.734 37.2c-5.387 0-9.68-1.68-12.88-5.04-3.2-3.413-4.8-7.973-4.8-13.68 0-5.813 1.573-10.427 4.72-13.84 3.147-3.467 7.307-5.2 12.48-5.2 5.067 0 9.067 1.6 12 4.8 2.987 3.2 4.48 7.547 4.48 13.04 0 1.014-.08 2.16-.24 3.44h-24.4c.32 2.987 1.253 5.254 2.8 6.8 1.547 1.494 3.52 2.24 5.92 2.24 3.467 0 5.947-1.466 7.44-4.4h8.8c-1.067 3.574-3.04 6.454-5.92 8.64-2.88 2.134-6.347 3.2-10.4 3.2Zm7.12-22.64c-.214-2.506-1.014-4.426-2.4-5.76-1.334-1.386-3.12-2.08-5.36-2.08-2.134 0-3.92.72-5.36 2.16-1.44 1.387-2.32 3.28-2.64 5.68h15.76ZM264.488 21.6v48.48h-8.88V21.6h8.88Z"/>
  </g>
</svg>
